# xmcd
#
# Track frame offsets: 
#        150
#        14690
#        29348
#        44833
#        60305
#        77176
#        94488
#        112372
#        132852
#        152297
#        171963
#        187889
#        203055
#        223600
#
# Disc length: 3236 seconds
#
# Revision: 0
# Processed by: cddbd v1.5.2PL0 Copyright (c) Steve Scherf et al.
# Submitted via: ExactAudioCopy v1.0b6
#
DISCID=c60ca20e
DTITLE=Georg Danzer - Austropop Collection - Georg Danzer CD2
DYEAR=2013
DGENRE=Austropop
TTITLE0=Ihr kennts mi (1976)
TTITLE1=Dieses mal wird alles gut (1991)
TTITLE2=So a Dodl mid Da Rodl (1976)
TTITLE3=Hupf In Gatsch (1976)
TTITLE4=Des is mei Frau (1999)
TTITLE5=Doppelgänger (2002)
TTITLE6=Geh wieder aus meinem Leben raus - Re-Mastered 2011
TTITLE7=Es ist leicht - Re-Mastered 2011
TTITLE8=Sag lieber gar nichts - Re-Mastered 2011
TTITLE9=Heute Nacht war ich James Dean (1975)
TTITLE10=Valerie (1974)
TTITLE11=Atemzüge - Re-Mastered 2011
TTITLE12=Traurig aber wahr (1998)
TTITLE13=Ollas leiwaund (2002)
EXTD=
EXTT0=
EXTT1=
EXTT2=
EXTT3=
EXTT4=
EXTT5=
EXTT6=
EXTT7=
EXTT8=
EXTT9=
EXTT10=
EXTT11=
EXTT12=
EXTT13=
PLAYORDER=
